<svg xmlns="http://www.w3.org/2000/svg" viewBox="0 0 2400 900" width="2400" height="900"><rect width="2400" height="900" fill="#2C3428"/><path d="M0 150.0 C140.0 104.0 260.0 196.0 400.0 150.0 C540.0 196.0 660.0 104.0 800.0 150.0 C940.0 104.0 1060.0 196.0 1200.0 150.0 C1340.0 196.0 1460.0 104.0 1600.0 150.0 C1740.0 104.0 1860.0 196.0 2000.0 150.0 C2140.0 196.0 2260.0 104.0 2400.0 150.0" fill="none" stroke="#FFFFFF" stroke-width="3" stroke-linecap="round" opacity=".13"/><path d="M0 255.0 C140.0 221.0 260.0 289.0 400.0 255.0 C540.0 289.0 660.0 221.0 800.0 255.0 C940.0 221.0 1060.0 289.0 1200.0 255.0 C1340.0 289.0 1460.0 221.0 1600.0 255.0 C1740.0 221.0 1860.0 289.0 2000.0 255.0 C2140.0 289.0 2260.0 221.0 2400.0 255.0" fill="none" stroke="#FFFFFF" stroke-width="2.5" stroke-linecap="round" opacity=".09"/><path d="M0 700.0 C140.0 648.0 260.0 752.0 400.0 700.0 C540.0 752.0 660.0 648.0 800.0 700.0 C940.0 648.0 1060.0 752.0 1200.0 700.0 C1340.0 752.0 1460.0 648.0 1600.0 700.0 C1740.0 648.0 1860.0 752.0 2000.0 700.0 C2140.0 752.0 2260.0 648.0 2400.0 700.0" fill="none" stroke="#FFFFFF" stroke-width="3" stroke-linecap="round" opacity=".14"/><path d="M0 800.0 C140.0 762.0 260.0 838.0 400.0 800.0 C540.0 838.0 660.0 762.0 800.0 800.0 C940.0 762.0 1060.0 838.0 1200.0 800.0 C1340.0 838.0 1460.0 762.0 1600.0 800.0 C1740.0 762.0 1860.0 838.0 2000.0 800.0 C2140.0 838.0 2260.0 762.0 2400.0 800.0" fill="none" stroke="#FFFFFF" stroke-width="2.5" stroke-linecap="round" opacity=".10"/><path d="M0 862.0 C140.0 836.0 260.0 888.0 400.0 862.0 C540.0 888.0 660.0 836.0 800.0 862.0 C940.0 836.0 1060.0 888.0 1200.0 862.0 C1340.0 888.0 1460.0 836.0 1600.0 862.0 C1740.0 836.0 1860.0 888.0 2000.0 862.0 C2140.0 888.0 2260.0 836.0 2400.0 862.0" fill="none" stroke="#FFFFFF" stroke-width="2" stroke-linecap="round" opacity=".07"/><g fill="none" stroke="#FFFFFF" stroke-width="3" stroke-linecap="round" stroke-linejoin="round" opacity=".13"><path d="M210.0 280.0 C273.0 379.0 273.0 463.0 210.0 505.0 C147.0 463.0 147.0 379.0 210.0 280.0 Z"/><path d="M192.0 493.0 C102.0 460.0 63.0 406.0 57.0 352.0"/><path d="M228.0 493.0 C318.0 460.0 357.0 406.0 363.0 352.0"/><path d="M7.5 499.0 C90.0 475.0 157.5 523.0 210.0 529.0 C262.5 523.0 330.0 475.0 412.5 499.0"/></g><g fill="none" stroke="#FFFFFF" stroke-width="3" stroke-linecap="round" stroke-linejoin="round" opacity=".13"><path d="M2190.0 290.0 C2253.0 389.0 2253.0 473.0 2190.0 515.0 C2127.0 473.0 2127.0 389.0 2190.0 290.0 Z"/><path d="M2172.0 503.0 C2082.0 470.0 2043.0 416.0 2037.0 362.0"/><path d="M2208.0 503.0 C2298.0 470.0 2337.0 416.0 2343.0 362.0"/><path d="M1987.5 509.0 C2070.0 485.0 2137.5 533.0 2190.0 539.0 C2242.5 533.0 2310.0 485.0 2392.5 509.0"/></g><g fill="none" stroke="#FFFFFF" stroke-width="3" stroke-linecap="round" stroke-linejoin="round" opacity=".08"><path d="M560.0 164.0 C596.1 220.8 596.1 268.9 560.0 293.0 C523.9 268.9 523.9 220.8 560.0 164.0 Z"/><path d="M549.7 286.1 C498.1 267.2 475.7 236.2 472.3 205.3"/><path d="M570.3 286.1 C621.9 267.2 644.3 236.2 647.7 205.3"/><path d="M443.9 289.6 C491.2 275.8 529.9 303.3 560.0 306.8 C590.1 303.3 628.8 275.8 676.1 289.6"/></g><g fill="none" stroke="#FFFFFF" stroke-width="3" stroke-linecap="round" stroke-linejoin="round" opacity=".08"><path d="M1840.0 164.0 C1876.1 220.8 1876.1 268.9 1840.0 293.0 C1803.9 268.9 1803.9 220.8 1840.0 164.0 Z"/><path d="M1829.7 286.1 C1778.1 267.2 1755.7 236.2 1752.3 205.3"/><path d="M1850.3 286.1 C1901.9 267.2 1924.3 236.2 1927.7 205.3"/><path d="M1723.9 289.6 C1771.2 275.8 1809.9 303.3 1840.0 306.8 C1870.1 303.3 1908.8 275.8 1956.1 289.6"/></g><g fill="none" stroke="#FFFFFF" stroke-width="3" stroke-linecap="round" stroke-linejoin="round" opacity=".07"><path d="M430.0 634.0 C457.7 677.6 457.7 714.5 430.0 733.0 C402.3 714.5 402.3 677.6 430.0 634.0 Z"/><path d="M422.1 727.7 C382.5 713.2 365.3 689.4 362.7 665.7"/><path d="M437.9 727.7 C477.5 713.2 494.7 689.4 497.3 665.7"/><path d="M340.9 730.4 C377.2 719.8 406.9 740.9 430.0 743.6 C453.1 740.9 482.8 719.8 519.1 730.4"/></g><g fill="none" stroke="#FFFFFF" stroke-width="3" stroke-linecap="round" stroke-linejoin="round" opacity=".07"><path d="M1980.0 624.0 C2007.7 667.6 2007.7 704.5 1980.0 723.0 C1952.3 704.5 1952.3 667.6 1980.0 624.0 Z"/><path d="M1972.1 717.7 C1932.5 703.2 1915.3 679.4 1912.7 655.7"/><path d="M1987.9 717.7 C2027.5 703.2 2044.7 679.4 2047.3 655.7"/><path d="M1890.9 720.4 C1927.2 709.8 1956.9 730.9 1980.0 733.6 C2003.1 730.9 2032.8 709.8 2069.1 720.4"/></g></svg>